<svg width="53" height="34" viewBox="0 0 53 34" fill="none" xmlns="http://www.w3.org/2000/svg">
<path d="M10.3784 14.3018C10.5575 14.3018 10.7311 14.2731 10.8994 14.2158C11.0713 14.1585 11.2235 14.0798 11.356 13.9795C11.4884 13.8757 11.5941 13.7557 11.6729 13.6196C11.7552 13.48 11.7982 13.3296 11.8018 13.1685H12.7417C12.7381 13.4263 12.6701 13.6733 12.5376 13.9097C12.4087 14.1424 12.235 14.3483 12.0166 14.5273C11.7982 14.7028 11.5475 14.8442 11.2646 14.9517C10.9818 15.0555 10.6864 15.1074 10.3784 15.1074C9.93799 15.1074 9.55306 15.0286 9.22363 14.8711C8.89421 14.7135 8.61849 14.5023 8.39648 14.2373C8.17806 13.9688 8.01335 13.6608 7.90234 13.3135C7.79134 12.9626 7.73584 12.5938 7.73584 12.207V11.9814C7.73584 11.5983 7.79134 11.2313 7.90234 10.8804C8.01335 10.5295 8.17806 10.2215 8.39648 9.95654C8.61849 9.68799 8.89421 9.47493 9.22363 9.31738C9.55306 9.15983 9.93799 9.08105 10.3784 9.08105C10.7222 9.08105 11.0373 9.13656 11.3237 9.24756C11.6138 9.35498 11.8626 9.50358 12.0703 9.69336C12.2816 9.87956 12.4463 10.1016 12.5645 10.3594C12.6826 10.6172 12.7417 10.8929 12.7417 11.1865H11.8018C11.7982 11.0111 11.7588 10.8464 11.6836 10.6924C11.612 10.5348 11.5135 10.397 11.3882 10.2788C11.2629 10.1606 11.1125 10.0675 10.937 9.99951C10.7651 9.93148 10.5789 9.89746 10.3784 9.89746C10.0705 9.89746 9.81087 9.96012 9.59961 10.0854C9.39193 10.2072 9.22363 10.3683 9.09473 10.5688C8.96582 10.7658 8.87272 10.9878 8.81543 11.2349C8.76172 11.4819 8.73486 11.7308 8.73486 11.9814V12.207C8.73486 12.4613 8.76172 12.7137 8.81543 12.9644C8.87272 13.2114 8.96403 13.4352 9.08936 13.6357C9.21826 13.8327 9.38656 13.9938 9.59424 14.1191C9.8055 14.2409 10.0669 14.3018 10.3784 14.3018ZM14.6646 6.75H17.6348V14.1406H19.5308V15H14.6646V14.1406H16.6411V7.61475H14.6646V6.75ZM21.271 9.18848H24.2412V14.1406H26.1372V15H21.271V14.1406H23.2476V10.0532H21.271V9.18848ZM23.1187 7.66309C23.1187 7.49837 23.167 7.36051 23.2637 7.24951C23.3639 7.13493 23.5143 7.07764 23.7148 7.07764C23.9118 7.07764 24.0604 7.13493 24.1606 7.24951C24.2609 7.36051 24.311 7.49837 24.311 7.66309C24.311 7.82422 24.2609 7.9585 24.1606 8.06592C24.0604 8.17334 23.9118 8.22705 23.7148 8.22705C23.5143 8.22705 23.3639 8.17334 23.2637 8.06592C23.167 7.9585 23.1187 7.82422 23.1187 7.66309ZM30.1978 14.3018C30.3768 14.3018 30.5505 14.2731 30.7188 14.2158C30.8906 14.1585 31.0428 14.0798 31.1753 13.9795C31.3078 13.8757 31.4134 13.7557 31.4922 13.6196C31.5745 13.48 31.6175 13.3296 31.6211 13.1685H32.561C32.5575 13.4263 32.4894 13.6733 32.3569 13.9097C32.228 14.1424 32.0544 14.3483 31.8359 14.5273C31.6175 14.7028 31.3669 14.8442 31.084 14.9517C30.8011 15.0555 30.5057 15.1074 30.1978 15.1074C29.7573 15.1074 29.3724 15.0286 29.043 14.8711C28.7135 14.7135 28.4378 14.5023 28.2158 14.2373C27.9974 13.9688 27.8327 13.6608 27.7217 13.3135C27.6107 12.9626 27.5552 12.5938 27.5552 12.207V11.9814C27.5552 11.5983 27.6107 11.2313 27.7217 10.8804C27.8327 10.5295 27.9974 10.2215 28.2158 9.95654C28.4378 9.68799 28.7135 9.47493 29.043 9.31738C29.3724 9.15983 29.7573 9.08105 30.1978 9.08105C30.5415 9.08105 30.8566 9.13656 31.1431 9.24756C31.4331 9.35498 31.682 9.50358 31.8896 9.69336C32.1009 9.87956 32.2656 10.1016 32.3838 10.3594C32.502 10.6172 32.561 10.8929 32.561 11.1865H31.6211C31.6175 11.0111 31.5781 10.8464 31.5029 10.6924C31.4313 10.5348 31.3328 10.397 31.2075 10.2788C31.0822 10.1606 30.9318 10.0675 30.7563 9.99951C30.5845 9.93148 30.3983 9.89746 30.1978 9.89746C29.8898 9.89746 29.6302 9.96012 29.4189 10.0854C29.2113 10.2072 29.043 10.3683 28.9141 10.5688C28.7852 10.7658 28.6921 10.9878 28.6348 11.2349C28.5811 11.4819 28.5542 11.7308 28.5542 11.9814V12.207C28.5542 12.4613 28.5811 12.7137 28.6348 12.9644C28.6921 13.2114 28.7834 13.4352 28.9087 13.6357C29.0376 13.8327 29.2059 13.9938 29.4136 14.1191C29.6248 14.2409 29.8862 14.3018 30.1978 14.3018ZM36.0684 12.2876L35.3379 12.9912V15H34.3389V6.75H35.3379V11.7988L35.9878 11.1006L37.8945 9.18848H39.103L36.7505 11.6108L39.4629 15H38.2007L36.0684 12.2876ZM28.1782 21.1885L28.2051 21.7363C28.3232 21.5322 28.4772 21.3729 28.667 21.2583C28.8604 21.1437 29.0931 21.0846 29.3652 21.0811C29.8988 21.0811 30.255 21.2887 30.4341 21.7041C30.5487 21.5179 30.6991 21.3693 30.8853 21.2583C31.075 21.1437 31.3042 21.0846 31.5728 21.0811C31.9989 21.0811 32.3265 21.2118 32.5557 21.4731C32.7848 21.7345 32.8994 22.1302 32.8994 22.6602V27H31.9541V22.6494C31.9541 22.1624 31.7303 21.9207 31.2827 21.9243C31.1646 21.9243 31.0625 21.9404 30.9766 21.9727C30.8906 22.0049 30.819 22.0496 30.7617 22.1069C30.7044 22.1606 30.6597 22.2251 30.6274 22.3003C30.5952 22.3719 30.5737 22.4471 30.563 22.5259V27H29.6177V22.644C29.6177 22.4113 29.5658 22.2323 29.4619 22.1069C29.3581 21.9816 29.1934 21.9207 28.9678 21.9243C28.7601 21.9243 28.599 21.9655 28.4844 22.0479C28.3698 22.1302 28.2856 22.2394 28.2319 22.3755V27H27.2866V21.1885H28.1782ZM36.8955 27.1074C36.4873 27.1074 36.1113 27.0376 35.7676 26.8979C35.4274 26.7583 35.1356 26.5632 34.8921 26.3125C34.6486 26.0618 34.4588 25.7646 34.3228 25.4209C34.1867 25.0771 34.1187 24.703 34.1187 24.2983V24.0728C34.1187 23.6037 34.1938 23.1847 34.3442 22.8159C34.4946 22.4435 34.6934 22.1302 34.9404 21.876C35.1911 21.6182 35.474 21.4212 35.7891 21.2852C36.1077 21.1491 36.4336 21.0811 36.7666 21.0811C37.1855 21.0811 37.5508 21.1545 37.8623 21.3013C38.1774 21.4445 38.4388 21.645 38.6465 21.9028C38.8542 22.1571 39.0081 22.4578 39.1084 22.8052C39.2122 23.1525 39.2642 23.5285 39.2642 23.9331V24.3789H35.1123C35.123 24.6439 35.1732 24.8927 35.2627 25.1255C35.3558 25.3582 35.4811 25.5623 35.6387 25.7378C35.7998 25.9097 35.9914 26.0457 36.2134 26.146C36.4354 26.2463 36.6807 26.2964 36.9492 26.2964C37.3037 26.2964 37.6188 26.2248 37.8945 26.0815C38.1702 25.9383 38.3994 25.7485 38.582 25.5122L39.189 25.9849C39.0923 26.1317 38.9705 26.2731 38.8237 26.4092C38.6805 26.5417 38.514 26.6598 38.3242 26.7637C38.1344 26.8675 37.9196 26.9499 37.6797 27.0107C37.4398 27.0752 37.1784 27.1074 36.8955 27.1074ZM36.7666 21.8975C36.5661 21.8975 36.3763 21.9351 36.1973 22.0103C36.0182 22.0819 35.8571 22.1893 35.7139 22.3325C35.5706 22.4722 35.4489 22.6458 35.3486 22.8535C35.252 23.0576 35.1839 23.2939 35.1445 23.5625H38.2705V23.4873C38.2598 23.2939 38.2222 23.1024 38.1577 22.9126C38.0968 22.7228 38.0055 22.5527 37.8838 22.4023C37.762 22.252 37.6081 22.1302 37.4219 22.0371C37.2393 21.944 37.0208 21.8975 36.7666 21.8975Z" fill="white"/>
<path fill-rule="evenodd" clip-rule="evenodd" d="M39 1H8C4.13401 1 1 4.13401 1 8V26C1 29.866 4.13401 33 8 33H38.5H39H42.876H43.5H50.5979L47.4943 28.0343L47.5 28L47.066 27.349L46.9223 27.1191C46.9218 27.1231 46.9212 27.1271 46.9207 27.131L46 25.75V8C46 4.13401 42.866 1 39 1ZM8 34H38.5H39H51.5H52.4021L51.924 33.235L47 25.3566V8C47 3.58172 43.4183 0 39 0H8C3.58172 0 0 3.58172 0 8V26C0 30.4183 3.58172 34 8 34Z" fill="white"/>
</svg>
