<svg width="46" height="34" viewBox="0 0 46 34" fill="none" xmlns="http://www.w3.org/2000/svg">
<path d="M7.66455 9.18848H10.6348V14.1406H12.5308V15H7.66455V14.1406H9.64111V10.0532H7.66455V9.18848ZM9.51221 7.66309C9.51221 7.49837 9.56055 7.36051 9.65723 7.24951C9.75749 7.13493 9.90788 7.07764 10.1084 7.07764C10.3053 7.07764 10.4539 7.13493 10.5542 7.24951C10.6545 7.36051 10.7046 7.49837 10.7046 7.66309C10.7046 7.82422 10.6545 7.9585 10.5542 8.06592C10.4539 8.17334 10.3053 8.22705 10.1084 8.22705C9.90788 8.22705 9.75749 8.17334 9.65723 8.06592C9.56055 7.9585 9.51221 7.82422 9.51221 7.66309ZM24.5405 15C24.5011 14.9248 24.4689 14.8317 24.4438 14.7207C24.4224 14.6061 24.4062 14.488 24.3955 14.3662C24.2952 14.4665 24.1825 14.5614 24.0571 14.6509C23.9354 14.7404 23.7993 14.8192 23.6489 14.8872C23.5021 14.9552 23.3446 15.009 23.1763 15.0483C23.008 15.0877 22.8289 15.1074 22.6392 15.1074C22.3312 15.1074 22.0519 15.0627 21.8013 14.9731C21.5542 14.8836 21.3429 14.7637 21.1675 14.6133C20.9956 14.4593 20.8613 14.2785 20.7646 14.0708C20.6715 13.8595 20.625 13.6322 20.625 13.3887C20.625 13.07 20.6877 12.7907 20.813 12.5508C20.9419 12.3109 21.1227 12.1121 21.3555 11.9546C21.5882 11.7935 21.8675 11.6735 22.1934 11.5947C22.5228 11.516 22.8898 11.4766 23.2944 11.4766H24.3794V11.02C24.3794 10.8446 24.3472 10.687 24.2827 10.5474C24.2183 10.4077 24.127 10.2896 24.0088 10.1929C23.8906 10.0926 23.7456 10.0156 23.5737 9.96191C23.4054 9.9082 23.2157 9.88135 23.0044 9.88135C22.8075 9.88135 22.6302 9.90641 22.4727 9.95654C22.3187 10.0067 22.188 10.0729 22.0806 10.1553C21.9731 10.2376 21.889 10.3361 21.8281 10.4507C21.7708 10.5617 21.7422 10.6781 21.7422 10.7998H20.7432C20.7467 10.5885 20.8005 10.3809 20.9043 10.1768C21.0117 9.97266 21.1639 9.79004 21.3608 9.62891C21.5614 9.46419 21.8031 9.33171 22.0859 9.23145C22.3724 9.13118 22.6965 9.08105 23.0581 9.08105C23.3875 9.08105 23.6937 9.12223 23.9766 9.20459C24.2594 9.28337 24.5029 9.40511 24.707 9.56982C24.9147 9.73096 25.0776 9.93327 25.1958 10.1768C25.314 10.4202 25.373 10.7049 25.373 11.0308V13.7324C25.373 13.9258 25.391 14.1317 25.4268 14.3501C25.4626 14.5649 25.5127 14.7529 25.5771 14.9141V15H24.5405ZM22.7842 14.2427C22.9775 14.2427 23.1584 14.2176 23.3267 14.1675C23.495 14.1174 23.6471 14.0511 23.7832 13.9688C23.9229 13.8864 24.0428 13.7933 24.1431 13.6895C24.2433 13.582 24.3221 13.471 24.3794 13.3564V12.1802H23.4556C22.8755 12.1802 22.4243 12.2661 22.1021 12.438C21.7798 12.6099 21.6187 12.8802 21.6187 13.249C21.6187 13.3923 21.6419 13.5247 21.6885 13.6465C21.7386 13.7682 21.812 13.8739 21.9087 13.9634C22.0054 14.0493 22.1271 14.1174 22.2739 14.1675C22.4207 14.2176 22.5908 14.2427 22.7842 14.2427ZM27.7847 9.18848L27.8115 9.73633C27.9297 9.53223 28.0837 9.37288 28.2734 9.2583C28.4668 9.14372 28.6995 9.08464 28.9717 9.08105C29.5052 9.08105 29.8615 9.28874 30.0405 9.7041C30.1551 9.5179 30.3055 9.3693 30.4917 9.2583C30.6815 9.14372 30.9106 9.08464 31.1792 9.08105C31.6053 9.08105 31.9329 9.21175 32.1621 9.47314C32.3913 9.73454 32.5059 10.1302 32.5059 10.6602V15H31.5605V10.6494C31.5605 10.1624 31.3368 9.92074 30.8892 9.92432C30.771 9.92432 30.6689 9.94043 30.583 9.97266C30.4971 10.0049 30.4255 10.0496 30.3682 10.1069C30.3109 10.1606 30.2661 10.2251 30.2339 10.3003C30.2017 10.3719 30.1802 10.4471 30.1694 10.5259V15H29.2241V10.644C29.2241 10.4113 29.1722 10.2323 29.0684 10.1069C28.9645 9.98161 28.7998 9.92074 28.5742 9.92432C28.3665 9.92432 28.2054 9.96549 28.0908 10.0479C27.9762 10.1302 27.8921 10.2394 27.8384 10.3755V15H26.8931V9.18848H27.7847ZM15.5977 27V21.9565H13.9971V21.1885H15.5977V20.7803C15.5977 20.4079 15.6514 20.082 15.7588 19.8027C15.8698 19.5199 16.0238 19.2835 16.2207 19.0938C16.4212 18.904 16.6611 18.7607 16.9404 18.6641C17.2197 18.5674 17.5312 18.519 17.875 18.519C18.1113 18.519 18.3405 18.5387 18.5625 18.5781C18.7881 18.6175 19.019 18.6676 19.2554 18.7285L19.1372 19.5503C18.9904 19.5002 18.8185 19.4572 18.6216 19.4214C18.4282 19.382 18.2205 19.3623 17.9985 19.3623C17.533 19.3659 17.1821 19.484 16.9458 19.7168C16.7131 19.9495 16.5967 20.304 16.5967 20.7803V21.1885H18.8364V21.9565H16.5967V27H15.5977ZM24.5405 27C24.5011 26.9248 24.4689 26.8317 24.4438 26.7207C24.4224 26.6061 24.4062 26.488 24.3955 26.3662C24.2952 26.4665 24.1825 26.5614 24.0571 26.6509C23.9354 26.7404 23.7993 26.8192 23.6489 26.8872C23.5021 26.9552 23.3446 27.009 23.1763 27.0483C23.008 27.0877 22.8289 27.1074 22.6392 27.1074C22.3312 27.1074 22.0519 27.0627 21.8013 26.9731C21.5542 26.8836 21.3429 26.7637 21.1675 26.6133C20.9956 26.4593 20.8613 26.2785 20.7646 26.0708C20.6715 25.8595 20.625 25.6322 20.625 25.3887C20.625 25.07 20.6877 24.7907 20.813 24.5508C20.9419 24.3109 21.1227 24.1121 21.3555 23.9546C21.5882 23.7935 21.8675 23.6735 22.1934 23.5947C22.5228 23.516 22.8898 23.4766 23.2944 23.4766H24.3794V23.02C24.3794 22.8446 24.3472 22.687 24.2827 22.5474C24.2183 22.4077 24.127 22.2896 24.0088 22.1929C23.8906 22.0926 23.7456 22.0156 23.5737 21.9619C23.4054 21.9082 23.2157 21.8813 23.0044 21.8813C22.8075 21.8813 22.6302 21.9064 22.4727 21.9565C22.3187 22.0067 22.188 22.0729 22.0806 22.1553C21.9731 22.2376 21.889 22.3361 21.8281 22.4507C21.7708 22.5617 21.7422 22.6781 21.7422 22.7998H20.7432C20.7467 22.5885 20.8005 22.3809 20.9043 22.1768C21.0117 21.9727 21.1639 21.79 21.3608 21.6289C21.5614 21.4642 21.8031 21.3317 22.0859 21.2314C22.3724 21.1312 22.6965 21.0811 23.0581 21.0811C23.3875 21.0811 23.6937 21.1222 23.9766 21.2046C24.2594 21.2834 24.5029 21.4051 24.707 21.5698C24.9147 21.731 25.0776 21.9333 25.1958 22.1768C25.314 22.4202 25.373 22.7049 25.373 23.0308V25.7324C25.373 25.9258 25.391 26.1317 25.4268 26.3501C25.4626 26.5649 25.5127 26.7529 25.5771 26.9141V27H24.5405ZM22.7842 26.2427C22.9775 26.2427 23.1584 26.2176 23.3267 26.1675C23.495 26.1174 23.6471 26.0511 23.7832 25.9688C23.9229 25.8864 24.0428 25.7933 24.1431 25.6895C24.2433 25.582 24.3221 25.471 24.3794 25.3564V24.1802H23.4556C22.8755 24.1802 22.4243 24.2661 22.1021 24.438C21.7798 24.6099 21.6187 24.8802 21.6187 25.249C21.6187 25.3923 21.6419 25.5247 21.6885 25.6465C21.7386 25.7682 21.812 25.8739 21.9087 25.9634C22.0054 26.0493 22.1271 26.1174 22.2739 26.1675C22.4207 26.2176 22.5908 26.2427 22.7842 26.2427ZM32.2534 24.1587C32.2534 24.5741 32.2033 24.9626 32.103 25.3242C32.0028 25.6823 31.856 25.9938 31.6626 26.2588C31.4692 26.5238 31.2293 26.7314 30.9429 26.8818C30.66 27.0322 30.3341 27.1074 29.9653 27.1074C29.5929 27.1074 29.2689 27.0412 28.9932 26.9087C28.721 26.7762 28.4883 26.5864 28.2949 26.3394L28.2466 27H27.3335V18.75H28.3271V21.8115C28.5169 21.5752 28.7461 21.3944 29.0146 21.269C29.2832 21.1437 29.5965 21.0811 29.9546 21.0811C30.327 21.0811 30.6564 21.1545 30.9429 21.3013C31.2293 21.4481 31.4692 21.6522 31.6626 21.9136C31.856 22.175 32.0028 22.4883 32.103 22.8535C32.2033 23.2152 32.2534 23.6126 32.2534 24.0459V24.1587ZM31.2598 24.0459C31.2598 23.763 31.2311 23.4945 31.1738 23.2402C31.1201 22.9824 31.0324 22.7568 30.9106 22.5635C30.7889 22.3665 30.6296 22.2108 30.4326 22.0962C30.2357 21.9816 29.994 21.9243 29.7075 21.9243C29.5356 21.9243 29.3781 21.9476 29.2349 21.9941C29.0916 22.0371 28.9627 22.0998 28.8481 22.1821C28.7371 22.2609 28.6369 22.3558 28.5474 22.4668C28.4614 22.5742 28.388 22.6924 28.3271 22.8213V25.3618C28.3916 25.4907 28.4668 25.6107 28.5527 25.7217C28.6423 25.8291 28.7443 25.924 28.8589 26.0063C28.9735 26.0887 29.1024 26.1532 29.2456 26.1997C29.3888 26.2427 29.5464 26.2642 29.7183 26.2642C29.9904 26.2642 30.2231 26.2087 30.4165 26.0977C30.6134 25.9831 30.7728 25.8291 30.8945 25.6357C31.0199 25.4424 31.1112 25.2186 31.1685 24.9644C31.2293 24.7101 31.2598 24.4416 31.2598 24.1587V24.0459Z" fill="white"/>
<path fill-rule="evenodd" clip-rule="evenodd" d="M32 1H8C4.13401 1 1 4.13401 1 8V26C1 29.866 4.13401 33 8 33H31.5H32H35.876H36.5H43.5979L40.4943 28.0343L40.5 28L40.066 27.349L39.9223 27.1191C39.9218 27.1231 39.9212 27.1271 39.9207 27.131L39 25.75V8C39 4.13401 35.866 1 32 1ZM8 34H31.5H32H44.5H45.4021L44.924 33.235L40 25.3566V8C40 3.58172 36.4183 0 32 0H8C3.58172 0 0 3.58172 0 8V26C0 30.4183 3.58172 34 8 34Z" fill="white"/>
</svg>
