<svg width="62" height="64" viewBox="0 0 62 64" fill="none" xmlns="http://www.w3.org/2000/svg">
<path d="M31 0C13.8828 0 0 14.328 0 32C0 46.1387 8.8815 58.1333 21.2014 62.3653C22.7488 62.6613 23.25 61.6693 23.25 60.8267V54.8693C14.6268 56.8053 12.8314 51.0933 12.8314 51.0933C11.4209 47.3947 9.38783 46.4107 9.38783 46.4107C6.57458 44.424 9.60225 44.4667 9.60225 44.4667C12.7152 44.6907 14.353 47.7653 14.353 47.7653C17.1172 52.656 21.6044 51.2427 23.374 50.424C23.6504 48.3573 24.4538 46.944 25.3425 46.1467C18.4579 45.3333 11.2194 42.5893 11.2194 30.3307C11.2194 26.8347 12.431 23.9813 14.4124 21.7413C14.0921 20.9333 13.0303 17.6773 14.7147 13.272C14.7147 13.272 17.3187 12.4133 23.2422 16.552C25.7145 15.8427 28.365 15.488 31 15.4747C33.635 15.488 36.2881 15.8427 38.7655 16.552C44.6839 12.4133 47.2827 13.272 47.2827 13.272C48.9697 17.68 47.9079 20.936 47.5876 21.7413C49.5767 23.9813 50.778 26.8373 50.778 30.3307C50.778 42.6213 43.5266 45.328 36.6239 46.12C37.7347 47.112 38.75 49.0587 38.75 52.0453V60.8267C38.75 61.6773 39.246 62.6773 40.8192 62.3627C53.1288 58.1253 62 46.1333 62 32C62 14.328 48.1197 0 31 0Z" fill="white"/>
</svg>
